<?xml version="1.0" encoding="utf-8"?>
<!-- Generator: Adobe Illustrator 23.0.1, SVG Export Plug-In . SVG Version: 6.00 Build 0)  -->
<svg version="1.1" id="Camada_1" xmlns="http://www.w3.org/2000/svg" xmlns:xlink="http://www.w3.org/1999/xlink" x="0px" y="0px"
	 viewBox="0 0 555.3 238.3" style="enable-background:new 0 0 555.3 238.3;" xml:space="preserve">
<style type="text/css">
	.st0{fill:#FFFFFF;}
	.st1{fill:#222222;}
	.st2{fill:#FFA400;}
	.st3{fill:#5A6165;}
</style>
<rect class="st0" width="555.3" height="238.3"/>
<path class="st1" d="M157.3,195.9H65.6c-3.1,0-5.6-2.5-5.6-5.6v-68.8c0-3.1,2.5-5.6,5.6-5.6h91.8c3.1,0,5.6,2.5,5.6,5.6v68.8
	C162.8,193.5,160.4,195.9,157.3,195.9z"/>
<path class="st2" d="M57.5,93.5H35.9c-3.3,0-6,2.7-6,6c0,3.3,2.7,6,6,6h21.5c3.3,0,6-2.7,6-6C63.4,96.2,60.7,93.5,57.5,93.5z"/>
<path class="st2" d="M187,93.5h-21.5c-3.3,0-6,2.7-6,6c0,3.3,2.7,6,6,6H187c3.3,0,6-2.7,6-6C193,96.2,190.4,93.5,187,93.5z"/>
<path class="st2" d="M111.4,22.4c-3.3,0-6,2.7-6,6v21.5c0,3.3,2.7,6,6,6c3.3,0,6-2.7,6-6V28.4C117.5,25.1,114.8,22.4,111.4,22.4z"/>
<path class="st2" d="M171.4,47.3c-2.2-2.5-6-2.7-8.5-0.6l-16.1,14.1c-2.5,2.2-2.7,6-0.6,8.5c2.2,2.5,6,2.7,8.5,0.6l16.1-14.1
	C173.4,53.5,173.7,49.8,171.4,47.3z"/>
<path class="st2" d="M76.1,60.8L60,46.7c-2.5-2.2-6.3-1.9-8.5,0.6c-2.1,2.5-1.9,6.3,0.6,8.5l16.1,14.1c2.5,2.2,6.3,1.9,8.5-0.6
	S78.6,63,76.1,60.8z"/>
<path class="st0" d="M120.9,150.9c0-5.1-4.2-9.4-9.4-9.4s-9.4,4.2-9.4,9.4c0,3.4,1.9,6.5,4.7,8.1v9.7c0,2.6,2.1,4.7,4.7,4.7
	s4.7-2.1,4.7-4.7V159C119,157.4,120.9,154.5,120.9,150.9z"/>
<path class="st2" d="M95.3,116v-11c0-8.9,7.3-16.1,16.1-16.1s16.1,7.3,16.1,16.1v11h20.1v-11c0-20-16.2-36.2-36.2-36.2
	S75.2,85,75.2,105v11C75.2,116,95.3,116,95.3,116z"/>
<g>
	<path class="st3" d="M231.1,181.7l0.1,0.2c0,4.1-0.8,7.3-2.4,9.3c-1.6,2.1-3.9,3.2-7,3.2c-3.1,0-5.6-1.2-7.4-3.6
		c-1.9-2.4-2.7-5.8-2.7-10.1v-11.2c0-4.4,0.9-7.7,2.7-10.1c1.8-2.4,4.2-3.6,7.2-3.6c3.2,0,5.6,1,7.2,3.3c1.6,2.1,2.5,5.3,2.5,9.5
		l-0.1,0.2h-5.7c0.1-2.5-0.2-4.3-0.8-5.3c-0.6-1-1.7-1.6-3.3-1.6c-1.4,0-2.3,0.7-3.1,1.9c-0.8,1.2-1,3.3-1,5.9v11.1
		c0,2.7,0.3,4.7,1.1,5.9c0.8,1.2,1.8,1.9,3.3,1.9s2.4-0.5,3-1.5c0.6-1,0.8-2.7,0.8-5.2L231.1,181.7L231.1,181.7z"/>
	<path class="st3" d="M250.7,177.4h-10v10.7h11.8v5.9h-17.6v-37.7h17.6v5.9h-11.7v9.3h10V177.4L250.7,177.4z"/>
	<path class="st3" d="M261.3,178.9v15h-5.8v-37.7h9.8c3,0,5.2,0.9,6.9,3c1.7,2,2.5,4.7,2.5,8.2c0,2-0.3,3.6-1,5.1
		c-0.7,1.5-1.7,2.6-3.1,3.4c1.5,0.7,2.7,1.7,3.3,3.3c0.7,1.5,1,3.4,1,5.7v2.7c0,1,0.1,2.1,0.3,3.3c0.2,1.1,0.6,2,1,2.6v0.6h-6
		c-0.5-0.6-0.8-1.5-0.9-2.7c-0.1-1.2-0.2-2.5-0.2-3.9V185c0-1.9-0.3-3.3-0.9-4.4c-0.6-1-1.5-1.5-2.6-1.5h-4.4L261.3,178.9
		L261.3,178.9z M261.3,173.1h3.9c1.1,0,2.1-0.5,2.7-1.4c0.6-0.9,0.9-2.2,0.9-3.9s-0.3-3.1-0.9-4.1c-0.7-1-1.5-1.5-2.7-1.5h-3.9
		V173.1L261.3,173.1z"/>
	<path class="st3" d="M295.2,162.1h-6.7v31.8h-5.8v-31.8H276v-5.9h19.3L295.2,162.1L295.2,162.1z"/>
	<path class="st3" d="M304.2,194h-5.8v-37.7h5.8V194z"/>
	<path class="st3" d="M324.9,178.2h-10.1v15.7H309v-37.7h17.7v5.9h-11.9v10.3h10.1L324.9,178.2L324.9,178.2z"/>
	<path class="st3" d="M335.9,194h-5.8v-37.7h5.8V194z"/>
	<path class="st3" d="M359.5,181.7l0.1,0.2c0,4.1-0.8,7.3-2.4,9.3c-1.6,2.1-3.9,3.2-7,3.2s-5.6-1.2-7.4-3.6
		c-1.9-2.4-2.7-5.8-2.7-10.1v-11.2c0-4.4,0.9-7.7,2.7-10.1c1.8-2.4,4.2-3.6,7.2-3.6c3.2,0,5.6,1,7.2,3.3c1.6,2.1,2.5,5.3,2.5,9.5
		l-0.1,0.2h-5.7c0.1-2.5-0.2-4.3-0.8-5.3c-0.6-1-1.7-1.6-3.3-1.6c-1.4,0-2.3,0.7-3.1,1.9c-0.8,1.2-1,3.3-1,5.9v11.1
		c0,2.7,0.3,4.7,1.1,5.9c0.8,1.2,1.8,1.9,3.3,1.9c1.5,0,2.4-0.5,3-1.5c0.6-1,0.8-2.7,0.8-5.2L359.5,181.7L359.5,181.7z"/>
	<path class="st3" d="M376.4,185.8h-7.9l-1.6,8H361l8.4-37.7h6.1l8.4,37.7h-5.8L376.4,185.8L376.4,185.8z M369.8,180h5.6l-2.7-13.4
		h-0.1L369.8,180z"/>
	<path class="st3" d="M386.3,194v-37.7h9.1c3.1,0,5.7,1.5,7.6,4.4c2,3,3,6.7,3,11.2v6.3c0,4.5-0.9,8.4-3,11.2c-2,3-4.5,4.4-7.6,4.4
		L386.3,194L386.3,194z M392.2,162.1v25.9h2.8c1.6,0,2.8-0.9,3.7-2.7c0.9-1.8,1.4-4.2,1.4-7.2v-6.4c0-3-0.5-5.2-1.4-7
		c-0.9-1.8-2.1-2.7-3.7-2.7H392.2z"/>
	<path class="st3" d="M430,180.4c0,4.4-0.9,7.8-2.8,10.4c-1.9,2.5-4.4,3.7-7.6,3.7c-3.2,0-5.7-1.2-7.5-3.7
		c-1.8-2.5-2.8-5.9-2.8-10.4v-10.6c0-4.4,0.9-7.8,2.8-10.4c1.9-2.5,4.4-3.7,7.5-3.7c3.2,0,5.7,1.2,7.6,3.7c1.9,2.5,2.8,6,2.8,10.4
		V180.4z M424.2,169.7c0-2.7-0.3-4.8-1.1-6.1c-0.8-1.3-1.9-2.1-3.4-2.1c-1.5,0-2.7,0.7-3.4,2c-0.8,1.3-1.1,3.4-1.1,6.1v10.7
		c0,2.7,0.3,4.8,1.1,6.1c0.8,1.3,1.9,2,3.4,2c1.5,0,2.7-0.7,3.4-2c0.8-1.3,1.1-3.4,1.1-6.1V169.7z"/>
	<path class="st3" d="M456.2,184c0-1.5-0.3-2.7-0.9-3.4c-0.6-0.9-1.6-1.7-3.2-2.5c-3.2-1.4-5.4-3-6.9-4.7c-1.5-1.7-2.3-4.2-2.3-7.3
		c0-3.1,0.9-5.7,2.7-7.5s4.1-3,6.9-3c2.8,0,5.1,1,6.9,3.3c1.8,2.2,2.7,4.9,2.6,8.2v0.2h-5.8c0-1.7-0.3-3.2-1-4.2s-1.6-1.6-2.8-1.6
		c-1.1,0-2.1,0.5-2.7,1.4c-0.6,0.9-0.9,2-0.9,3.3c0,1.2,0.3,2.3,1,3.1c0.7,0.8,2,1.7,3.9,2.7c2.8,1.2,5,2.7,6.4,4.5
		c1.5,1.8,2.1,4.4,2.1,7.5c0,3.3-0.9,5.8-2.6,7.6c-1.7,1.8-4,2.7-6.9,2.7c-2.8,0-5.3-1-7.4-3.2c-2-2.1-3.1-5.1-3.1-9.1v-0.2h5.7
		c0,2.3,0.3,4,1.1,5.1c0.8,1,1.9,1.5,3.5,1.5c1.2,0,2.1-0.3,2.7-1.2C456.1,186.5,456.2,185.5,456.2,184L456.2,184z"/>
	<path class="st3" d="M478.9,184c0-1.5-0.3-2.7-0.9-3.4c-0.6-0.9-1.6-1.7-3.2-2.5c-3.2-1.4-5.4-3-6.9-4.7c-1.5-1.7-2.3-4.2-2.3-7.3
		c0-3.1,0.9-5.7,2.7-7.5c1.8-1.9,4.1-3,6.9-3c2.8,0,5.1,1,6.9,3.3c1.8,2.2,2.7,4.9,2.6,8.2v0.2H479c0-1.7-0.3-3.2-1-4.2
		c-0.7-1-1.6-1.6-2.8-1.6c-1.1,0-2.1,0.5-2.7,1.4c-0.6,0.9-0.9,2-0.9,3.3c0,1.2,0.3,2.3,1,3.1c0.7,0.8,2,1.7,3.9,2.7
		c2.8,1.2,5,2.7,6.4,4.5s2.1,4.4,2.1,7.5c0,3.3-0.9,5.8-2.6,7.6s-4,2.7-6.9,2.7s-5.3-1-7.4-3.2c-2-2.1-3.1-5.1-3.1-9.1v-0.2h5.7
		c0,2.3,0.3,4,1.1,5.1s1.9,1.5,3.5,1.5c1.2,0,2.1-0.3,2.7-1.2C478.9,186.5,478.9,185.5,478.9,184L478.9,184z"/>
	<path class="st3" d="M494.3,188.1h10.9v5.9h-16.8v-37.7h5.8L494.3,188.1L494.3,188.1L494.3,188.1z"/>
</g>
<g>
	<path class="st1" d="M243.5,118.4c0-3.4-0.7-6.1-1.9-8.1c-1.4-2-3.5-3.9-6.8-5.9c-6.7-3.2-11.6-6.8-15-10.9c-3.3-4-5-9.8-5-17
		c0-7.2,1.9-13.1,5.8-17.6c3.9-4.5,8.7-6.8,14.8-6.8c6.1,0,11,2.5,14.9,7.5c3.9,5.1,5.7,11.5,5.6,19.1l-0.1,0.3h-12.2
		c0-4-0.8-7.3-2.2-9.8c-1.5-2.5-3.5-3.7-6.2-3.7c-2.5,0-4.4,1-5.8,3.2c-1.5,2.1-2.1,4.7-2.1,7.8c0,2.8,0.8,5.2,2.3,7.2
		c1.5,1.9,4.2,3.9,8.1,6.2c6.1,2.8,10.6,6.4,13.6,10.7c3.1,4.3,4.5,10.2,4.5,17.6c0,7.6-1.8,13.5-5.6,17.8
		c-3.7,4.3-8.6,6.5-14.7,6.5c-6.1,0-11.4-2.5-15.8-7.4s-6.6-11.9-6.5-21.1l0.1-0.3h12.1c0,5.4,0.9,9.3,2.5,11.7
		c1.6,2.4,4.2,3.5,7.5,3.5c2.7,0,4.5-0.9,5.8-2.8C242.8,124.3,243.5,121.8,243.5,118.4L243.5,118.4z"/>
	<path class="st1" d="M297.7,102.8h-21.5v24.9h25.3v13.7h-37.8V53.4h37.7v13.7h-25.2v21.9h21.5V102.8z"/>
	<path class="st1" d="M350.3,128.3c-1.7,3.9-4.3,7.2-7.7,10s-7.8,4.3-13.2,4.3c-6.9,0-12.3-2.7-16.5-8.3c-4.1-5.6-6.2-13.4-6.2-23.5
		V84.1c0-10.1,2-17.9,6-23.5s9.2-8.3,15.8-8.3c7,0,12.4,2.4,15.9,7.2s5.3,11.6,5.6,20.5l-0.1,0.3h-11.8c-0.1-5-0.9-8.6-2.4-10.9
		c-1.5-2.3-3.9-3.4-6.9-3.4s-5.4,1.5-7.2,4.5c-1.7,3-2.6,7.4-2.6,13.5v27c0,6.2,0.9,10.7,2.6,13.6c1.7,3,4.3,4.5,7.6,4.5
		c2.5,0,4.3-0.5,5.6-1.5c1.1-0.9,2.2-2.3,3-4.1v-15.8h-8.5V95.4h20.9V128.3L350.3,128.3z"/>
	<path class="st1" d="M402.4,53.4v59.8c0,9.3-2,16.6-6,21.7c-4,5.1-9.2,7.6-15.8,7.6c-6.5,0-11.7-2.6-15.8-7.6c-4-5.1-6-12.3-6-21.7
		V53.4h12.5v59.8c0,5.3,0.8,9.2,2.4,11.8s3.9,3.9,6.8,3.9c3.1,0,5.3-1.2,6.9-3.6c1.6-2.4,2.4-6.4,2.4-12V53.4H402.4L402.4,53.4z"/>
	<path class="st1" d="M423.9,106.4v34.9h-12.4V53.5h20.9c6.3,0,11.2,2.3,14.8,6.9c3.6,4.5,5.3,10.9,5.3,19.1c0,4.5-0.8,8.6-2.2,11.8
		c-1.5,3.3-3.7,6-6.6,7.9c3.3,1.5,5.7,4.1,7,7.6c1.5,3.5,2.2,8,2.2,13.3v6.2c0,2.4,0.2,5,0.6,7.7c0.3,2.7,1.1,4.8,2.2,6v1.2h-12.8
		c-1-1.2-1.6-3.3-1.9-6.3c-0.3-2.8-0.3-5.8-0.3-8.9v-6c0-4.4-0.7-7.8-1.9-10.2c-1.2-2.4-3.2-3.6-5.7-3.6L423.9,106.4z M423.9,92.8
		h8.3c2.6,0,4.5-1,5.8-3.3c1.4-2.1,2-5.1,2-9.2s-0.7-7.3-2-9.7s-3.3-3.5-5.7-3.5h-8.4V92.8L423.9,92.8z"/>
	<path class="st1" d="M505.4,109.8c0,10.3-2,18.3-6.1,24.1c-4.1,5.8-9.4,8.6-16.2,8.6c-6.8,0-12.1-2.8-16.2-8.6
		c-4-5.8-6.1-13.9-6.1-24.1V85.2c0-10.3,2-18.3,6.1-24.1c4-5.8,9.4-8.7,16.1-8.7c6.7,0,12.1,3,16.2,8.7c4.1,5.8,6.1,14,6.1,24.1
		L505.4,109.8L505.4,109.8z M493,85c0-6.3-0.9-11-2.6-14.2c-1.7-3.3-4.2-4.8-7.4-4.8c-3.3,0-5.7,1.6-7.4,4.8
		c-1.6,3.2-2.5,7.9-2.5,14.3V110c0,6.4,0.9,11.1,2.5,14.3c1.6,3.2,4.1,4.8,7.4,4.8c3.3,0,5.7-1.6,7.4-4.8c1.7-3.2,2.6-8,2.6-14.3
		L493,85L493,85z"/>
</g>
</svg>
